<svg xmlns="http://www.w3.org/2000/svg" viewBox="0 0 512 512" role="img" aria-label="Dream Aurora Aura"><defs><radialGradient id="halo" cx="50%" cy="50%" r="50%"><stop offset="0" stop-color="#ffffff" stop-opacity="0"/><stop offset=".46" stop-color="#8af7ff" stop-opacity=".10"/><stop offset=".72" stop-color="#b58dff" stop-opacity=".34"/><stop offset="1" stop-color="#ff83ca" stop-opacity="0"/></radialGradient><filter id="glow" x="-60%" y="-60%" width="220%" height="220%"><feGaussianBlur stdDeviation="8" result="b"/><feMerge><feMergeNode in="b"/><feMergeNode in="SourceGraphic"/></feMerge></filter></defs><ellipse cx="256" cy="260" rx="210" ry="218" fill="url(#halo)"/><g fill="none" stroke-linecap="round" filter="url(#glow)"><path d="M62 306C128 111 217 159 256 89c41 72 132 22 194 218" stroke="#8df7ff" stroke-width="22" opacity=".72"/><path d="M76 337C143 165 213 198 255 131c44 66 115 33 181 205" stroke="#d88dff" stroke-width="18" opacity=".8"/><path d="M102 370C166 232 225 250 256 196c33 55 91 37 154 174" stroke="#ff89ce" stroke-width="12" opacity=".8"/></g><g filter="url(#glow)"><path d="M124 136a42 42 0 1 0 52-52 35 35 0 1 1-52 52z" fill="#fff2b8"/><path d="M388 140l9 18 20 3-15 14 4 20-18-10-18 10 4-20-15-14 20-3z" fill="#fff"/></g></svg>