<svg xmlns="http://www.w3.org/2000/svg" viewBox="0 0 800 800" role="img" aria-label="Berry Blast Luxe Star Canopy"><defs><linearGradient id="bg" x1="0" y1="0" x2="1" y2="1"><stop stop-color="#fff0f5"/><stop offset=".5" stop-color="#d83e7a"/><stop offset="1" stop-color="#ff9dc1"/></linearGradient><linearGradient id="main" x1="0" y1="0" x2="1" y2="1"><stop stop-color="#ff9dc1"/><stop offset=".38" stop-color="#7d3f9f"/><stop offset="1" stop-color="#d83e7a"/></linearGradient><filter id="s" x="-40%" y="-40%" width="180%" height="180%"><feDropShadow dx="0" dy="26" stdDeviation="20" flood-color="#243051" flood-opacity=".28"/><feDropShadow dx="-7" dy="-7" stdDeviation="8" flood-color="#fff" flood-opacity=".28"/></filter><filter id="g" x="-80%" y="-80%" width="260%" height="260%"><feGaussianBlur stdDeviation="10" result="b"/><feMerge><feMergeNode in="b"/><feMergeNode in="SourceGraphic"/></feMerge></filter></defs><rect width="800" height="800" rx="72" fill="url(#bg)"/><ellipse cx="400" cy="680" rx="255" ry="48" fill="#28334c" opacity=".14"/><circle cx="400" cy="370" r="292" fill="none" stroke="#ff9dc1" stroke-opacity=".28" stroke-width="5"/><path d="M86 104C198 42 316 34 412 58" fill="none" stroke="#fff" stroke-opacity=".34" stroke-width="18" stroke-linecap="round"/><circle cx="400" cy="370" r="330" fill="none" stroke="#7d3f9f" stroke-opacity=".22" stroke-width="8"/><g fill="#fff" opacity=".9"><path d="M112 150l9 22 22 9-22 9-9 22-9-22-22-9 22-9z"/><path d="M665 170l7 17 17 7-17 7-7 17-7-17-17-7 17-7z"/><circle cx="132" cy="612" r="8"/><circle cx="665" cy="620" r="10"/></g><g filter="url(#s)"><rect x="142" y="240" width="516" height="368" rx="24" fill="#fffaf0" stroke="#fff" stroke-width="14"/><path d="M170 210h460" stroke="#d83e7a" stroke-width="24" stroke-linecap="round"/><path d="M188 210v408M612 210v408" stroke="#7d3f9f" stroke-width="22" stroke-linecap="round"/><path d="M188 224c70 51 142 54 216 8 75 46 144 44 208-8v176c-71-45-141-42-210 8-71-48-142-51-214-8z" fill="#fff0f5" stroke="#fff" stroke-width="7"/><path d="M124 430h552v174H124z" fill="url(#main)" stroke="#fff" stroke-width="12"/><path d="M166 472h468v92H166z" fill="#d83e7a" opacity=".7"/><path d="M400 92l31 79 84 4-66 51 23 81-72-46-72 46 23-81-66-51 84-4z" fill="#fff1a8" stroke="#fff" stroke-width="12" filter="url(#g)"/><path d="M400 147l16 40 43 2-34 26 12 42-37-24-37 24 12-42-34-26 43-2z" fill="#ff9dc1"/><path d="M264 498l24-37 24 37 39 11-25 32 2 40-40-14-40 14 2-40-25-32zm272 0l24-37 24 37 39 11-25 32 2 40-40-14-40 14 2-40-25-32z" fill="#fff5cf" stroke="#fff" stroke-width="6"/></g></svg>