<svg xmlns="http://www.w3.org/2000/svg" viewBox="0 0 512 512" role="img" aria-label="Cloud Pop Utility Skirt"><defs><radialGradient id="bg"><stop stop-color="#fbfeff"/><stop offset=".55" stop-color="#dff2ff"/><stop offset="1" stop-color="#9ac9eb"/></radialGradient><linearGradient id="p" x1="0" y1="0" x2="1" y2="1"><stop stop-color="#c6e8ff"/><stop offset=".52" stop-color="#89bee9"/><stop offset="1" stop-color="#4d8ac1"/></linearGradient><filter id="s"><feDropShadow dx="0" dy="18" stdDeviation="15" flood-color="#326994" flood-opacity=".28"/></filter></defs><rect width="512" height="512" rx="70" fill="url(#bg)"/><g fill="#fff" opacity=".8"><ellipse cx="111" cy="116" rx="34" ry="16"/><ellipse cx="391" cy="139" rx="42" ry="18"/></g><ellipse cx="256" cy="425" rx="137" ry="24" fill="#5183a6" opacity=".17"/><g filter="url(#s)"><path d="M182 126h148l30 248c-55 22-153 22-208 0z" fill="url(#p)" stroke="#e9f7ff" stroke-width="8" stroke-linejoin="round"/><path d="M184 158h144" stroke="#f8fdff" stroke-width="12" stroke-linecap="round"/><path d="M198 214h55v66h-55zM273 214h55v66h-55z" fill="#6fa8d6" stroke="#d9efff" stroke-width="6"/><path d="M205 234h41M280 234h41" stroke="#457fb2" stroke-width="5"/><circle cx="236" cy="251" r="5" fill="#ffe063"/><circle cx="311" cy="251" r="5" fill="#ffe063"/><path d="M256 160v194" stroke="#d8efff" stroke-width="5" stroke-dasharray="9 7"/><path d="M206 318h101" stroke="#6d9fc8" stroke-width="7" stroke-linecap="round"/><path d="M215 344h27M277 344h28" stroke="#f4fbff" stroke-width="6" stroke-linecap="round"/></g><path d="M197 141h78" stroke="#fff" stroke-opacity=".48" stroke-width="5" stroke-linecap="round"/></svg>