<svg xmlns="http://www.w3.org/2000/svg" viewBox="0 0 512 512" role="img" aria-label="Galaxy Glow Pebble Turtle"><defs><radialGradient id="bg"><stop stop-color="#f7fffb"/><stop offset=".55" stop-color="#c9f1de"/><stop offset="1" stop-color="#7ab99c"/></radialGradient><linearGradient id="shell" x1="0" y1="0" x2="1" y2="1"><stop stop-color="#85c99d"/><stop offset=".5" stop-color="#4f8d70"/><stop offset="1" stop-color="#315c4b"/></linearGradient><filter id="s"><feDropShadow dy="18" stdDeviation="14" flood-color="#315c4b" flood-opacity=".3"/></filter></defs><rect width="512" height="512" rx="70" fill="url(#bg)"/><ellipse cx="256" cy="420" rx="128" ry="24" fill="#315c4b" opacity=".16"/><g filter="url(#s)"><ellipse cx="258" cy="298" rx="118" ry="93" fill="url(#shell)" stroke="#2f6650" stroke-width="9"/><path d="M176 299c20-54 139-69 164 0-34 30-130 30-164 0z" fill="#9bd7a9" opacity=".58"/><path d="M211 240l45 35 45-35 31 43-31 41-45-24-45 24-31-41z" fill="none" stroke="#d0f0c8" stroke-width="7"/><ellipse cx="132" cy="299" rx="47" ry="42" fill="#b7dd9c" stroke="#6ea66a" stroke-width="8"/><ellipse cx="386" cy="299" rx="47" ry="42" fill="#b7dd9c" stroke="#6ea66a" stroke-width="8"/><circle cx="113" cy="292" r="8" fill="#38483d"/><circle cx="151" cy="292" r="8" fill="#38483d"/><path d="M121 314c8 7 16 7 24 0" fill="none" stroke="#6f6a52" stroke-width="5" stroke-linecap="round"/><ellipse cx="198" cy="386" rx="32" ry="21" fill="#9fc881" stroke="#6ea66a" stroke-width="7"/><ellipse cx="314" cy="386" rx="32" ry="21" fill="#9fc881" stroke="#6ea66a" stroke-width="7"/><path d="M416 301l33-18-4 37z" fill="#9fc881" stroke="#6ea66a" stroke-width="6"/></g></svg>