<svg xmlns="http://www.w3.org/2000/svg" viewBox="0 0 800 800" role="img"><defs><linearGradient id="bg" x1="0" y1="0" x2="1" y2="1"><stop stop-color="#c6b2ff"/><stop offset=".5" stop-color="#8cecff"/><stop offset="1" stop-color="#ffe8ff"/></linearGradient><linearGradient id="staff" x1="0" y1="0" x2="1" y2="1"><stop stop-color="#f3e3ff"/><stop offset=".48" stop-color="#9b7cff"/><stop offset="1" stop-color="#5741bd"/></linearGradient><linearGradient id="gold" x1="0" y1="0" x2="1" y2="1"><stop stop-color="#fffbe3"/><stop offset=".5" stop-color="#ffe179"/><stop offset="1" stop-color="#f1a547"/></linearGradient><filter id="g" x="-80%" y="-80%" width="260%" height="260%"><feGaussianBlur stdDeviation="11" result="b"/><feMerge><feMergeNode in="b"/><feMergeNode in="SourceGraphic"/></feMerge></filter><filter id="s" x="-50%" y="-50%" width="200%" height="200%"><feDropShadow dx="0" dy="28" stdDeviation="18" flood-color="#35256a" flood-opacity=".34"/><feDropShadow dx="-8" dy="-8" stdDeviation="8" flood-color="#fff" flood-opacity=".34"/></filter></defs><rect width="800" height="800" rx="72" fill="url(#bg)"/><ellipse cx="400" cy="350" rx="330" ry="300" fill="#fff" opacity=".24"/><circle cx="400" cy="400" r="250" fill="none" stroke="#fff" stroke-opacity=".27" stroke-width="5"/><circle cx="400" cy="400" r="285" fill="none" stroke="#fff" stroke-opacity=".12" stroke-width="3"/><g fill="#fff" opacity=".84"><circle cx="110" cy="145" r="8"/><circle cx="680" cy="145" r="10"/><circle cx="145" cy="620" r="8"/><circle cx="660" cy="635" r="7"/><circle cx="610" cy="205" r="5"/></g><ellipse cx="400" cy="665" rx="230" ry="52" fill="#312762" opacity=".16"/><g filter="url(#s)"><rect x="376" y="300" width="48" height="350" rx="24" fill="url(#staff)" stroke="#fff" stroke-width="9"/><path d="M466 165c-88-30-155 56-119 135 24 52 87 76 138 43-84 2-115-104-19-178z" fill="#fff1b4" stroke="#fff" stroke-width="12" filter="url(#g)"/><path d="M520 187l10 28 30 1-24 18 8 29-24-17-25 17 9-29-24-18 30-1z" fill="#ff92d0" stroke="#fff" stroke-width="7"/><path d="M435 270q70 85 120 130" fill="none" stroke="#fff" stroke-width="5" stroke-dasharray="10 15" opacity=".7"/><path d="M555 392l7 18 20 1-16 12 6 19-17-11-17 11 6-19-16-12 20-1z" fill="#a9f3ff" stroke="#fff" stroke-width="5"/><path d="M345 223l7 18 20 1-16 12 6 19-17-11-17 11 6-19-16-12 20-1z" fill="#c7b0ff" stroke="#fff" stroke-width="5"/><circle cx="400" cy="675" r="34" fill="url(#gold)" stroke="#fff" stroke-width="7"/></g><path d="M105 95C180 45 300 32 390 54" fill="none" stroke="#fff" stroke-width="18" stroke-linecap="round" opacity=".28"/></svg>