<svg xmlns="http://www.w3.org/2000/svg" viewBox="0 0 800 800" role="img"><defs><linearGradient id="bg" x1="0" y1="0" x2="1" y2="1"><stop stop-color="#8bc9ff"/><stop offset=".52" stop-color="#765cf4"/><stop offset="1" stop-color="#ffe48d"/></linearGradient><linearGradient id="staff" x1="0" y1="0" x2="1" y2="1"><stop stop-color="#f2dcff"/><stop offset=".45" stop-color="#9c7cff"/><stop offset="1" stop-color="#5641bf"/></linearGradient><linearGradient id="orb" x1="0" y1="0" x2="1" y2="1"><stop stop-color="#e9ffff"/><stop offset=".48" stop-color="#65e2ff"/><stop offset="1" stop-color="#4d77e8"/></linearGradient><linearGradient id="gold" x1="0" y1="0" x2="1" y2="1"><stop stop-color="#fff9d8"/><stop offset=".5" stop-color="#ffd466"/><stop offset="1" stop-color="#e89b39"/></linearGradient><filter id="s" x="-50%" y="-50%" width="200%" height="200%"><feDropShadow dx="0" dy="28" stdDeviation="18" flood-color="#2d275f" flood-opacity=".34"/><feDropShadow dx="-8" dy="-8" stdDeviation="8" flood-color="#fff" flood-opacity=".34"/></filter></defs><rect width="800" height="800" rx="72" fill="url(#bg)"/><ellipse cx="400" cy="350" rx="330" ry="300" fill="#fff" opacity=".25"/><g fill="#fff" opacity=".78"><circle cx="105" cy="150" r="8"/><circle cx="684" cy="145" r="10"/><circle cx="150" cy="620" r="7"/><circle cx="665" cy="630" r="8"/></g><ellipse cx="400" cy="660" rx="225" ry="50" fill="#30295f" opacity=".18"/><g filter="url(#s)" transform="rotate(-9 400 410)"><rect x="376" y="270" width="48" height="365" rx="24" fill="url(#staff)" stroke="#fff" stroke-width="9"/><circle cx="400" cy="232" r="92" fill="url(#orb)" stroke="#fff" stroke-width="12"/><ellipse cx="400" cy="232" rx="128" ry="44" fill="none" stroke="#ffe997" stroke-width="15" transform="rotate(-18 400 232)"/><circle cx="505" cy="195" r="24" fill="#ff9fd2" stroke="#fff" stroke-width="6"/><path d="M335 174q-72-42-112 16 83 18 120 67" fill="url(#gold)" opacity=".92" stroke="#fff" stroke-width="8"/><circle cx="370" cy="200" r="22" fill="#fff" opacity=".55"/><path d="M400 620l11 23 26 4-19 18 5 26-23-12-23 12 5-26-19-18 26-4z" fill="url(#gold)" stroke="#fff" stroke-width="6"/></g><path d="M105 95C180 45 300 32 390 54" fill="none" stroke="#fff" stroke-width="18" stroke-linecap="round" opacity=".28"/></svg>