<svg xmlns="http://www.w3.org/2000/svg" width="800" height="800" viewBox="0 0 800 800" role="img" aria-label="Pixel Grid Rug — Star Luxe"><title>Pixel Grid Rug — Star Luxe</title><desc>A luxe dark pixel-grid rug with beveled gold trim, luminous gridwork, and a bold central star medallion.</desc><defs><linearGradient id="bg" x1="0" y1="0" x2="1" y2="1"><stop offset="0" stop-color="#6778ff" stop-opacity=".30"/><stop offset=".52" stop-color="#ffffff" stop-opacity=".96"/><stop offset="1" stop-color="#141b49" stop-opacity=".34"/></linearGradient><linearGradient id="main" x1="0" y1="0" x2="1" y2="1"><stop offset="0" stop-color="#6778ff"/><stop offset=".55" stop-color="#141b49"/><stop offset="1" stop-color="#d4a83d"/></linearGradient><filter id="shadow" x="-30%" y="-30%" width="160%" height="180%"><feDropShadow dx="0" dy="18" stdDeviation="18" flood-color="#1b2452" flood-opacity=".30"/></filter><pattern id="grid" width="56" height="56" patternUnits="userSpaceOnUse"><rect width="56" height="56" fill="#10183c"/><path d="M56 0H0V56" fill="none" stroke="#5f72ff" stroke-width="3" opacity=".7"/><rect x="6" y="6" width="12" height="12" rx="2" fill="#f7c95d" opacity=".88"/></pattern></defs><rect width="800" height="800" rx="64" fill="url(#bg)"/><ellipse cx="400" cy="630" rx="270" ry="58" fill="#0b1230" opacity=".22"/><g filter="url(#shadow)"><path d="M168 277l64-62h336l64 62v232l-64 62H232l-64-62z" fill="#0b1130" opacity=".25"/><path d="M156 250l66-61h356l66 61v244l-66 61H222l-66-61z" fill="#151c44" stroke="#f7d16d" stroke-width="12"/><path d="M188 277l52-48h320l52 48v190l-52 48H240l-52-48z" fill="url(#grid)" stroke="#8da0ff" stroke-width="6"/><path d="M400 288l21 43 48 7-35 34 8 48-42-22-42 22 8-48-35-34 48-7z" fill="#ffd86b" stroke="#fff4bd" stroke-width="6"/><g fill="#9eeeff"><rect x="252" y="315" width="28" height="28"/><rect x="520" y="409" width="28" height="28"/><rect x="293" y="451" width="18" height="18"/><rect x="484" y="276" width="18" height="18"/></g><path d="M216 533h368" stroke="#f9d978" stroke-width="7" stroke-linecap="round" opacity=".9"/></g></svg>