<svg xmlns="http://www.w3.org/2000/svg" viewBox="0 0 512 512" role="img" aria-label="Berry Blast Varsity Tee"><defs><radialGradient id="b"><stop stop-color="#fff"/><stop offset=".55" stop-color="#ffe3f0"/><stop offset="1" stop-color="#ffb7d4"/></radialGradient><linearGradient id="c" x1="0" y1="0" x2="1" y2="1"><stop stop-color="#ff7cac"/><stop offset=".55" stop-color="#e94e83"/><stop offset="1" stop-color="#bd2d62"/></linearGradient><filter id="s"><feDropShadow dx="0" dy="14" stdDeviation="13" flood-color="#9a345f" flood-opacity=".3"/></filter></defs><rect width="512" height="512" rx="70" fill="url(#b)"/><circle cx="87" cy="102" r="10" fill="#fff" opacity=".8"/><circle cx="420" cy="132" r="7" fill="#ff6ba0" opacity=".55"/><ellipse cx="256" cy="429" rx="128" ry="25" fill="#a84b70" opacity=".16"/><g filter="url(#s)"><path d="M184 162l45-25h54l45 25 56 51-46 55-25-20v164H199V248l-25 20-46-55z" fill="url(#c)" stroke="#aa2d5b" stroke-width="8" stroke-linejoin="round"/><path d="M226 139c7 22 53 22 60 0" fill="none" stroke="#fff6fb" stroke-width="10"/><path d="M179 170l42 37M333 170l-42 37" stroke="#fff4f8" stroke-width="10"/><path d="M199 387h114v27H199z" fill="#f7e9f0"/><path d="M199 387h114" stroke="#ffd64d" stroke-width="6"/><path d="M232 210h48l0 108h-48z" fill="#fff" opacity=".94" rx="12"/><path d="M244 224h31l-7 28 19 0-38 53 8-36-22 0z" fill="#ffd44b" stroke="#e4a72c" stroke-width="4"/><path d="M207 339h98" stroke="#ffc3d7" stroke-width="7" stroke-linecap="round"/></g></svg>