<svg xmlns="http://www.w3.org/2000/svg" width="600" height="600" viewBox="0 0 600 600" role="img" aria-labelledby="title desc">
<title id="title">Cloud Jacket</title>
<desc id="desc">Premium dimensional Candy Core tier four puffer jacket product art.</desc>
<defs>
  <linearGradient id="bg" x1="0" y1="0" x2="1" y2="1"><stop offset="0" stop-color="#fff8fb"/><stop offset=".5" stop-color="#f8ebff"/><stop offset="1" stop-color="#e9f5ff"/></linearGradient>
  <radialGradient id="halo" cx="50%" cy="42%" r="54%"><stop offset="0" stop-color="#ffffff" stop-opacity=".92"/><stop offset=".65" stop-color="#ffd8ef" stop-opacity=".22"/><stop offset="1" stop-color="#b9cfff" stop-opacity="0"/></radialGradient>
  <linearGradient id="pink" x1="0" y1="0" x2="1" y2="1"><stop offset="0" stop-color="#ffb7dc"/><stop offset=".45" stop-color="#f47cc0"/><stop offset="1" stop-color="#cf5db1"/></linearGradient>
  <linearGradient id="pinkHi" x1="0" y1="0" x2="0" y2="1"><stop offset="0" stop-color="#ffe0f1"/><stop offset=".38" stop-color="#ffa7d2"/><stop offset="1" stop-color="#e066b6"/></linearGradient>
  <linearGradient id="lilac" x1="0" y1="0" x2="1" y2="1"><stop offset="0" stop-color="#ded4ff"/><stop offset=".45" stop-color="#b89cff"/><stop offset="1" stop-color="#876fe1"/></linearGradient>
  <linearGradient id="blue" x1="0" y1="0" x2="1" y2="1"><stop offset="0" stop-color="#d9efff"/><stop offset=".5" stop-color="#9cc9ff"/><stop offset="1" stop-color="#6e9ee9"/></linearGradient>
  <linearGradient id="cream" x1="0" y1="0" x2="1" y2="1"><stop offset="0" stop-color="#fffefc"/><stop offset=".7" stop-color="#f8eaf4"/><stop offset="1" stop-color="#e9d8ea"/></linearGradient>
  <linearGradient id="gold" x1="0" y1="0" x2="1" y2="1"><stop offset="0" stop-color="#fff1a3"/><stop offset=".34" stop-color="#f7c452"/><stop offset=".72" stop-color="#d69022"/><stop offset="1" stop-color="#9c5f13"/></linearGradient>
  <linearGradient id="rib" x1="0" y1="0" x2="1" y2="0"><stop offset="0" stop-color="#7052bf"/><stop offset=".28" stop-color="#a689ea"/><stop offset=".52" stop-color="#ff91c5"/><stop offset=".74" stop-color="#a689ea"/><stop offset="1" stop-color="#6c52b7"/></linearGradient>
  <filter id="shadow" x="-30%" y="-30%" width="160%" height="180%"><feGaussianBlur in="SourceAlpha" stdDeviation="9" result="b"/><feOffset dy="12" result="o"/><feColorMatrix in="o" type="matrix" values="0 0 0 0 0.25 0 0 0 0 0.16 0 0 0 0 0.42 0 0 0 .25 0"/><feMerge><feMergeNode/><feMergeNode in="SourceGraphic"/></feMerge></filter>
  <filter id="soft" x="-20%" y="-20%" width="140%" height="140%"><feGaussianBlur stdDeviation="1.25"/></filter>
  <pattern id="ribbing" width="8" height="8" patternUnits="userSpaceOnUse"><rect width="8" height="8" fill="url(#rib)"/><path d="M2 0v8M6 0v8" stroke="#fff" stroke-opacity=".18" stroke-width="1"/></pattern>
</defs>
<rect width="600" height="600" rx="44" fill="url(#bg)"/>
<rect width="600" height="600" rx="44" fill="url(#halo)"/>
<ellipse cx="302" cy="531" rx="180" ry="28" fill="#6a4b9f" opacity=".14" filter="url(#soft)"/>
<g filter="url(#shadow)">
  <!-- hood depth -->
  <path d="M198 147C212 84 259 54 313 56c58 2 103 36 113 93l-31 40H224z" fill="url(#pinkHi)" stroke="#be6bb2" stroke-width="4"/>
  <path d="M225 144c14-40 48-61 87-60 42 1 75 24 86 61l-22 18H246z" fill="#7d66c6" opacity=".45"/>
  <path d="M239 137c17-29 42-43 74-42 34 1 59 16 74 45-19-9-44-14-74-14-29 0-53 4-74 11z" fill="#ffd0e8" opacity=".94"/>
  <!-- torso base -->
  <path d="M188 178c35-29 77-42 125-42 48 0 92 14 126 43l21 220c4 43-22 76-65 82-58 8-113 9-166 0-43-7-68-39-64-82z" fill="url(#lilac)" stroke="#8a6ed2" stroke-width="5"/>
  <!-- sleeves -->
  <path d="M193 190c-49 12-82 44-99 91-15 42-22 91-26 145-2 30 16 49 43 52l38 4 30-40 34-219z" fill="url(#pink)" stroke="#b65aa0" stroke-width="5"/>
  <path d="M432 190c49 12 82 44 99 91 15 42 22 91 26 145 2 30-16 49-43 52l-38 4-30-40-34-219z" fill="url(#pink)" stroke="#b65aa0" stroke-width="5"/>
  <!-- sleeve cloud quilting -->
  <path d="M90 299c20-13 45-17 66-7 12 6 21 14 27 24 8-18 24-29 43-30l-8 63c-12-7-25-9-39-5-20 5-34 19-39 38-11-18-27-29-49-33z" fill="url(#cream)" stroke="#e7c9df" stroke-width="3"/>
  <path d="M535 299c-20-13-45-17-66-7-12 6-21 14-27 24-8-18-24-29-43-30l8 63c12-7 25-9 39-5 20 5 34 19 39 38 11-18 27-29 49-33z" fill="url(#cream)" stroke="#e7c9df" stroke-width="3"/>
  <path d="M78 369c19-10 39-12 57-5 16 6 28 18 35 34 10-13 23-21 41-23l-7 54c-18 0-33 8-43 22-10-14-24-22-43-23-16-1-29 3-41 12z" fill="url(#blue)" stroke="#7caee7" stroke-width="3"/>
  <path d="M547 369c-19-10-39-12-57-5-16 6-28 18-35 34-10-13-23-21-41-23l7 54c18 0 33 8 43 22 10-14 24-22 43-23 16-1 29 3 41 12z" fill="url(#blue)" stroke="#7caee7" stroke-width="3"/>
  <!-- torso puffer cloud cells -->
  <path d="M193 207c33-24 72-34 119-34 46 0 87 11 120 34l7 72c-25-9-47-10-65-2-18 8-30 20-38 37-12-18-29-28-51-31-27-4-52 5-76 27z" fill="url(#pinkHi)" stroke="#d86fb2" stroke-width="3"/>
  <path d="M197 282c27-14 54-18 79-12 20 5 35 15 46 31 13-17 31-27 52-30 25-4 48 1 67 15l8 70c-21-8-41-9-60-2-18 6-33 18-43 36-15-17-34-27-57-29-29-2-55 8-78 31z" fill="url(#cream)" stroke="#e2d2df" stroke-width="3"/>
  <path d="M205 363c24-12 49-15 74-8 20 6 35 17 46 33 13-16 31-26 52-28 27-3 51 5 72 24l7 53c-20 17-46 25-75 24-20-1-39-6-56-16-18 11-39 17-63 18-22 1-41-5-56-17z" fill="url(#blue)" stroke="#6f9fdb" stroke-width="3"/>
  <!-- quilting seams / highlights -->
  <path d="M204 252c63 16 141 16 219 1M201 334c70 19 151 17 240-2M201 407c77 19 159 17 247-5" fill="none" stroke="#fff" stroke-opacity=".34" stroke-width="5" stroke-linecap="round"/>
  <path d="M156 264c-23 44-34 98-33 162M469 264c23 44 34 98 33 162" fill="none" stroke="#fff" stroke-opacity=".28" stroke-width="5" stroke-linecap="round"/>
  <!-- zipper placket -->
  <rect x="303" y="155" width="20" height="310" rx="8" fill="#7d5cc6" opacity=".85"/>
  <rect x="310" y="164" width="8" height="293" fill="url(#gold)"/>
  <path d="M306 170h16M306 182h16M306 194h16M306 206h16M306 218h16M306 230h16M306 242h16M306 254h16M306 266h16M306 278h16M306 290h16M306 302h16M306 314h16M306 326h16M306 338h16M306 350h16M306 362h16M306 374h16M306 386h16M306 398h16M306 410h16M306 422h16M306 434h16M306 446h16" stroke="#ffe9a3" stroke-width="2" opacity=".9"/>
  <!-- ribbed cuffs and hem -->
  <path d="M72 433l82 8-2 44-47-5c-23-2-36-16-33-47z" fill="url(#ribbing)" stroke="#6d55b8" stroke-width="4"/>
  <path d="M553 433l-82 8 2 44 47-5c23-2 36-16 33-47z" fill="url(#ribbing)" stroke="#6d55b8" stroke-width="4"/>
  <path d="M199 445c74 17 150 17 227 0l3 39c-78 12-157 12-233 0z" fill="url(#ribbing)" stroke="#6d55b8" stroke-width="4"/>
  <!-- pockets -->
  <g>
    <path d="M225 350l61-8 14 24-48 39-30-17z" fill="#e98bc2" stroke="#b85b9d" stroke-width="4"/>
    <path d="M399 350l-61-8-14 24 48 39 30-17z" fill="#e98bc2" stroke="#b85b9d" stroke-width="4"/>
    <circle cx="267" cy="365" r="7" fill="url(#gold)"/><circle cx="357" cy="365" r="7" fill="url(#gold)"/>
  </g>
  <!-- small cloud appliques -->
  <g fill="#fff9fd" stroke="#e6cfe4" stroke-width="2">
    <path d="M228 237c-10 1-17 8-17 17 0 10 8 17 19 17h41c10 0 18-7 18-16 0-8-6-15-15-16-3-12-12-19-23-19-10 0-19 7-23 17z"/>
    <path d="M364 239c-8 1-14 7-14 15 0 9 7 15 16 15h33c9 0 15-6 15-14 0-7-5-13-13-14-3-10-10-16-20-16-8 0-15 6-17 14z"/>
  </g>
  <!-- star hardware -->
  <g fill="url(#gold)" stroke="#fff2b6" stroke-width="2">
    <path d="M315 293l8 16 18 3-13 12 3 18-16-8-16 8 3-18-13-12 18-3z"/>
    <path d="M233 318l5 10 12 2-9 8 2 12-10-5-10 5 2-12-9-8 12-2z" transform="scale(.7) translate(99 137)"/>
  </g>
  <!-- zipper pull -->
  <path d="M314 219l16 12-6 23-20 0-6-23z" fill="url(#gold)" stroke="#a96815" stroke-width="3"/>
  <circle cx="314" cy="237" r="5" fill="#fff4bf"/>
  <!-- glossy edge highlights -->
  <path d="M208 186c48-26 106-35 164-19M117 249c-17 30-27 66-31 105M507 249c17 30 27 66 31 105" fill="none" stroke="#fff" stroke-opacity=".55" stroke-width="6" stroke-linecap="round"/>
</g>
</svg>